{"title":"Geordie Shore Complete Season 9 (2014) WEB-DL","uid":11675702,"size":3939713178,"categoryP":"video","categoryS":"tv_shows","magnet":"?xt=urn:btih:41410bf421dce3cd5b627386196044b096a87d24&amp;dn=Geordie+Shore+Complete+Season+9+%282014%29+WEB-DL&amp;tr=udp%3A%2F%2Ftracker.openbittorrent.com%3A80&amp;tr=udp%3A%2F%2Fopen.demonii.com%3A1337&amp;tr=udp%3A%2F%2Ftracker.coppersurfer.tk%3A6969&amp;tr=udp%3A%2F%2Fexodus.desync.com%3A6969","seeders":78,"leechers":15,"uploader":"jmanwf","files":8,"time":1422857099,"description":"ALL 8 Episodes of Season 9\n\n\nALL In MP4\n\n\nVideo\nID : 2\nFormat : AVC\nFormat/Info : Advanced Video Codec\nFormat profile : &lt;a class=&quot;__cf_email__&quot; href=&quot;/cdn-cgi/l/email-protection&quot; data-cfemail=&quot;aeeccfddcbc2c7c0cbeee29d809e&quot;&gt;[email&amp;#160;protected]&lt;/a&gt;&lt;script cf-hash='f9e31' type=&quot;text/javascript&quot;&gt;\n/* &lt;![CDATA[ */!function(){try{var t=&quot;currentScript&quot;in document?document.currentScript:function(){for(var t=document.getElementsByTagName(&quot;script&quot;),e=t.length;e--;)if(t[e].getAttribute(&quot;cf-hash&quot;))return t[e]}();if(t&amp;&amp;t.previousSibling){var e,r,n,i,c=t.previousSibling,a=c.getAttribute(&quot;data-cfemail&quot;);if(a){for(e=&quot;&quot;,r=parseInt(a.substr(0,2),16),n=2;a.length-n;n+=2)i=parseInt(a.substr(n,2),16)^r,e+=String.fromCharCode(i);e=document.createTextNode(e),c.parentNode.replaceChild(e,c)}}}catch(u){}}();/* ]]&gt; */&lt;/script&gt;\nFormat settings, CABAC : No\nFormat settings, ReFrames : 1 frame\nCodec ID : avc1\nCodec ID/Info : Advanced Video Coding\nDuration : 42mn 40s\nBit rate : 1 541 Kbps\nWidth : 640 pixels\nHeight : 480 pixels\nDisplay aspect ratio : 16:9\nFrame rate mode : Constant\nFrame rate : 25.000 fps\nColor space : YUV\nChroma subsampling : 4:2:0\nBit depth : 8 bits\nScan type : Progressive\nBits/(Pixel*Frame) : 0.201\nStream size : 470 MiB (92%)\nLanguage : English\nEncoded date : UTC 2014-12-17 03:34:34\nTagged date : UTC 2014-12-17 03:36:45\nColor primaries : BT.601 NTSC\nTransfer characteristics : BT.709\nMatrix coefficients : BT.601\n\nAudio\nID : 1\nFormat : AAC\nFormat/Info : Advanced Audio Codec\nFormat profile : LC\nCodec ID : 40\nDuration : 42mn 40s\nBit rate mode : Variable\nBit rate : 126 Kbps\nMaximum bit rate : 208 Kbps\nChannel(s) : 2 channels\nChannel positions : Front: L R\nSampling rate : 44.1 KHz\nCompression mode : Lossy\nStream size : 38.4 MiB (8%)\nLanguage : English\nEncoded date : UTC 2014-12-17 03:34:34\nTagged date : UTC 2014-12-17 03:36:45\n\nSource: https://itunes.apple.com/gb/...e-shore-season-9/id927980752","torrent":{"xt":"urn:btih:41410bf421dce3cd5b627386196044b096a87d24","amp;dn":"Geordie+Shore+Complete+Season+9+%282014%29+WEB-DL","amp;tr":["udp%3A%2F%2Ftracker.openbittorrent.com%3A80","udp%3A%2F%2Fopen.demonii.com%3A1337","udp%3A%2F%2Ftracker.coppersurfer.tk%3A6969","udp%3A%2F%2Fexodus.desync.com%3A6969"],"infoHash":"41410bf421dce3cd5b627386196044b096a87d24","infoHashBuffer":{"type":"Buffer","data":[65,65,11,244,33,220,227,205,91,98,115,134,25,96,68,176,150,168,125,36]},"announce":[],"urlList":[]}}